# xmcd
#
# Track frame offsets:
#	150
#	14307
#	29327
#	44875
#	62045
#	81440
#	95222
#	112645
#	127582
#	143535
#	155372
#	167035
#	183082
#	196847
#	211560
#	229770
#
# Disc length: 3259 seconds
#
# Revision: 1
# Processed by: cddbd v1.5.2PL0 Copyright (c) Steve Scherf et al.
# Submitted via: audiograbber 1.83.01
#
DISCID=c60cb910
DTITLE=Various Artist - MH1077
DYEAR=1900
DGENRE=Karaoke
TTITLE0=Dean, Billy - Somewhere In My Broken heart
TTITLE1=Black, Clint - Where Are You now
TTITLE2=Sawyer Brown - All These Years
TTITLE3=Alabama - T.L.C. A.S.A.P.
TTITLE4=Kershaw, Sammy - Love Of My Life
TTITLE5=Diamond Rio - In A Week Or Two
TTITLE6=Brooks and Dunn - She Used To Be Mine
TTITLE7=Brooks, Garth - Somewhere Other Than The Night
TTITLE8=Gill, Vince - Don't Let Our Love Start Slippin' Away
TTITLE9=White, Bryan - So Much For Pretending
TTITLE10=Jackson, Alan - Tall, Tall Trees
TTITLE11=Lawrence, Tracy - Texas Tornado
TTITLE12=Tritt, Travis - T-R-O-U-B-L-E
TTITLE13=Strait, George - Check Yes Or No
TTITLE14=McCoy, Neal - No Doubt About It
TTITLE15=Walker, Clay - Dreaming With My Eyes Open
EXTD=
EXTT0=
EXTT1=
EXTT2=
EXTT3=
EXTT4=
EXTT5=
EXTT6=
EXTT7=
EXTT8=
EXTT9=
EXTT10=
EXTT11=
EXTT12=
EXTT13=
EXTT14=
EXTT15=
PLAYORDER=
